{"title":"The.Hunger.Games.Catching.Fire.2013.480p.BRRip.XviD.AC3-EVO","uid":9498369,"size":2366108762,"categoryP":"video","categoryS":"movies","magnet":"?xt=urn:btih:6a8906e19828f0e547fe51b1075e4ebebe594352&amp;dn=The.Hunger.Games.Catching.Fire.2013.480p.BRRip.XviD.AC3-EVO&amp;tr=udp%3A%2F%2Ftracker.openbittorrent.com%3A80&amp;tr=udp%3A%2F%2Fopen.demonii.com%3A1337&amp;tr=udp%3A%2F%2Ftracker.coppersurfer.tk%3A6969&amp;tr=udp%3A%2F%2Fexodus.desync.com%3A6969","seeders":3,"leechers":0,"uploader":"Helliod","files":1,"time":1390161571,"description":"Â« Every Revolution Begins with a Spark Â»\n\nKatniss Everdeen and Peeta Mellark become targets of the Capitol after their victory in the 74th Hunger Games sparks a rebellion in the Districts of Panem.\n\n\nFile: The.Hunger.Games.Catching.Fire.2013.480p.BRRip.XviD.AC3-EVO.avi\nFilesize: 2256.50 Mb ( 2Â 366Â 108Â 762 bytes )\nPlay length: 02:26:14.800 (210385 frames)\nSubtitles: Not Present\nVideo: 720x304 (2.37:1), 23.976 fps, XviD MPEG-4 ~1702 kbps avg, 0.32 bit/pixel\nAudio: 48 kHz, AC3 Dolby Digital, 3/2 (L,C,R,l,r) + LFE ch, ~448 kbps\n\nGeneral\nComplete name                            : The.Hunger.Games.Catching.Fire.2013.480p.BRRip.XviD.AC3-EVO.avi\nFormat                                   : AVI\nFormat/Info                              : Audio Video Interleave\nFormat profile                           : OpenDML\nFile size                                : 2.20 GiB\nDuration                                 : 2h 26mn\nOverall bit rate                         : 2 157 Kbps\nWriting library                          : VirtualDub build 32593/release\n\nVideo\nID                                       : 0\nFormat                                   : MPEG-4 Visual\nFormat profile                           : Advanced Simple@L5\nFormat settings, BVOP                    : 2\nFormat settings, QPel                    : No\nFormat settings, GMC                     : No warppoints\nFormat settings, Matrix                  : Default (H.263)\nMuxing mode                              : Packed bitstream\nCodec ID                                 : XVID\nCodec ID/Hint                            : XviD\nDuration                                 : 2h 26mn\nBit rate                                 : 1 697 Kbps\nWidth                                    : 720 pixels\nHeight                                   : 304 pixels\nDisplay aspect ratio                     : 2.35:1\nFrame rate                               : 23.976 fps\nColor space                              : YUV\nChroma subsampling                       : 4:2:0\nBit depth                                : 8 bits\nScan type                                : Progressive\nCompression mode                         : Lossy\nBits/(Pixel*Frame)                       : 0.323\nStream size                              : 1.73 GiB (79%)\nWriting library                          : XviD 64\n\nAudio\nID                                       : 1\nFormat                                   : AC-3\nFormat/Info                              : Audio Coding 3\nMode extension                           : CM (complete main)\nFormat settings, Endianness              : Big\nCodec ID                                 : 2000\nDuration                                 : 2h 26mn\nBit rate mode                            : Constant\nBit rate                                 : 448 Kbps\nChannel count                            : 6 channels\nChannel positions                        : Front: L C R, Side: L R, LFE\nSampling rate                            : 48.0 KHz\nBit depth                                : 16 bits\nCompression mode                         : Lossy\nStream size                              : 469 MiB (21%)\nAlignment                                : Aligned on interleaves\nInterleave, duration                     : 42 ms (1.00 video frame)\nInterleave, preload duration             : 512 ms\n\n","torrent":{"xt":"urn:btih:6a8906e19828f0e547fe51b1075e4ebebe594352","amp;dn":"The.Hunger.Games.Catching.Fire.2013.480p.BRRip.XviD.AC3-EVO","amp;tr":["udp%3A%2F%2Ftracker.openbittorrent.com%3A80","udp%3A%2F%2Fopen.demonii.com%3A1337","udp%3A%2F%2Ftracker.coppersurfer.tk%3A6969","udp%3A%2F%2Fexodus.desync.com%3A6969"],"infoHash":"6a8906e19828f0e547fe51b1075e4ebebe594352","infoHashBuffer":{"type":"Buffer","data":[106,137,6,225,152,40,240,229,71,254,81,177,7,94,78,190,190,89,67,82]},"announce":[],"urlList":[]}}